<?xml version="1.0" encoding="UTF-8" standalone="no"?>
<!-- Created with Inkscape (http://www.inkscape.org/) -->

<svg
   version="1.1"
   id="svg2"
   width="195.98"
   height="57.712002"
   viewBox="0 0 195.98 57.712002"
   xmlns="http://www.w3.org/2000/svg"
   xmlns:svg="http://www.w3.org/2000/svg">
  <defs
     id="defs6" />
  <g
     id="g8"
     transform="matrix(1.3333333,0,0,-1.3333333,0,57.712)">
    <g
       id="g10"
       transform="translate(56.71,6.199)">
      <g
         id="g12">
        <g
           id="g14">
          <g
             id="g16">
            <g
               id="g18">
              <path
                 d="m 1.69073,22.67752 c 0,0.93378 -0.75695,1.69074 -1.69073,1.69074 -0.93378,0 -1.69073,-0.75696 -1.69073,-1.69074 0,-0.93379 0.75695,-1.69075 1.69073,-1.69075 0.93378,0 1.69073,0.75696 1.69073,1.69075 z"
                 style="fill:#000000;fill-opacity:1;fill-rule:nonzero;stroke:none"
                 id="path20" />
            </g>
            <g
               id="g22"
               transform="matrix(0.8,0,0,0.8,0,22.677)">
              <g
                 id="g24" />
              <g
                 id="g26"
                 transform="translate(0,-22.677)" />
            </g>
          </g>
          <g
             id="g28">
            <g
               id="g30"
               transform="matrix(0.8,0,0,0.8,-21.976,28.894)">
              <g
                 id="g32">
                <g
                   id="g34"
                   transform="translate(-34.734,-35.093)">
                  <text
                     xml:space="preserve"
                     transform="matrix(1,0,0,-1,34.734,35.093)"
                     style="font-variant:normal;font-weight:normal;font-size:9.9626px;font-family:CMMI10;-inkscape-font-specification:CMMI10;writing-mode:lr-tb;fill:#000000;fill-opacity:1;fill-rule:nonzero;stroke:none"
                     id="text38"><tspan
                       x="0 7.7917495 13.05798 21.805143 25.237259 28.399387 33.642704 40.329601 48.261822"
                       y="0"
                       id="tspan36">FamilySES</tspan></text>
                  <g
                     id="g40"
                     transform="translate(34.734,35.093)" />
                </g>
              </g>
              <g
                 id="g42"
                 transform="translate(21.976,-28.894)" />
            </g>
          </g>
          <g
             id="g44">
            <g
               id="g46">
              <path
                 d="m -20.98677,0 c 0,0.93378 -0.75696,1.69073 -1.69075,1.69073 -0.93378,0 -1.69074,-0.75695 -1.69074,-1.69073 0,-0.93378 0.75696,-1.69073 1.69074,-1.69073 0.93379,0 1.69075,0.75695 1.69075,1.69073 z"
                 style="fill:#000000;fill-opacity:1;fill-rule:nonzero;stroke:none"
                 id="path48" />
            </g>
            <g
               id="g50"
               transform="matrix(0.8,0,0,0.8,-22.677,0)">
              <g
                 id="g52" />
              <g
                 id="g54"
                 transform="translate(22.677)" />
            </g>
          </g>
          <g
             id="g56">
            <g
               id="g58"
               transform="matrix(0.8,0,0,0.8,-54.054,-1.993)">
              <g
                 id="g60">
                <g
                   id="g62"
                   transform="translate(-2.656,-4.206)">
                  <text
                     xml:space="preserve"
                     transform="matrix(1,0,0,-1,2.656,4.206)"
                     style="font-variant:normal;font-weight:normal;font-size:9.9626px;font-family:CMMI10;-inkscape-font-specification:CMMI10;writing-mode:lr-tb;fill:#000000;fill-opacity:1;fill-rule:nonzero;stroke:none"
                     id="text66"><tspan
                       x="0 7.8375773 12.66645 15.828579 19.000671 23.639257 28.750071"
                       y="0"
                       id="tspan64">College</tspan></text>
                  <g
                     id="g68"
                     transform="translate(2.656,4.206)" />
                </g>
              </g>
              <g
                 id="g70"
                 transform="translate(54.054,1.993)" />
            </g>
          </g>
          <g
             id="g72">
            <g
               id="g74">
              <path
                 d="m 24.36826,0 c 0,0.93378 -0.75696,1.69073 -1.69074,1.69073 -0.93379,0 -1.69075,-0.75695 -1.69075,-1.69073 0,-0.93378 0.75696,-1.69073 1.69075,-1.69073 0.93378,0 1.69074,0.75695 1.69074,1.69073 z"
                 style="fill:#000000;fill-opacity:1;fill-rule:nonzero;stroke:none"
                 id="path76" />
            </g>
            <g
               id="g78"
               transform="matrix(0.8,0,0,0.8,22.677,0)">
              <g
                 id="g80" />
              <g
                 id="g82"
                 transform="translate(-22.677)" />
            </g>
          </g>
          <g
             id="g84">
            <g
               id="g86"
               transform="matrix(0.8,0,0,0.8,27.345,-1.949)">
              <g
                 id="g88">
                <g
                   id="g90"
                   transform="translate(-84.055,-4.25)">
                  <text
                     xml:space="preserve"
                     transform="matrix(1,0,0,-1,84.055,4.25)"
                     style="font-variant:normal;font-weight:normal;font-size:9.9626px;font-family:CMMI10;-inkscape-font-specification:CMMI10;writing-mode:lr-tb;fill:#000000;fill-opacity:1;fill-rule:nonzero;stroke:none"
                     id="text94"><tspan
                       x="0 7.7917495 13.495337 17.092833 22.796421 27.560537 32.209087 40.131344 45.397575 50.171654 56.151207 59.583321 65.562874 70.673691"
                       y="0"
                       id="tspan92">FutureEarnings</tspan></text>
                  <g
                     id="g96"
                     transform="translate(84.055,4.25)" />
                </g>
              </g>
              <g
                 id="g98"
                 transform="translate(-27.345,1.949)" />
            </g>
          </g>
          <g
             id="g100">
            <path
               d="M -1.30833,21.37044 -15.63896,7.0398"
               style="fill:none;stroke:#000000;stroke-width:0.79701;stroke-linecap:butt;stroke-linejoin:miter;stroke-miterlimit:10;stroke-dasharray:none;stroke-opacity:1"
               id="path102" />
            <g
               id="g104"
               transform="matrix(-0.7071,-0.7071,0.7071,-0.7071,-15.63895,7.03981)">
              <g
                 id="g106">
                <path
                   d="M 5.68147,0 C 4.98376,0.12027 1.91684,0.8018 0,1.54347 V -1.54347 C 1.91684,-0.8018 4.98376,-0.12027 5.68147,0 Z"
                   style="fill:#000000;fill-opacity:1;fill-rule:nonzero;stroke:#000000;stroke-width:0.79701;stroke-linecap:butt;stroke-linejoin:miter;stroke-miterlimit:10;stroke-dasharray:none;stroke-opacity:1"
                   id="path108" />
              </g>
            </g>
          </g>
          <g
             id="g110">
            <path
               d="M 1.30833,21.37044 15.63896,7.0398"
               style="fill:none;stroke:#000000;stroke-width:0.79701;stroke-linecap:butt;stroke-linejoin:miter;stroke-miterlimit:10;stroke-dasharray:none;stroke-opacity:1"
               id="path112" />
            <g
               id="g114"
               transform="matrix(0.7071,-0.7071,0.7071,0.7071,15.63895,7.03981)">
              <g
                 id="g116">
                <path
                   d="M 5.68147,0 C 4.98376,0.12027 1.91684,0.8018 0,1.54347 V -1.54347 C 1.91684,-0.8018 4.98376,-0.12027 5.68147,0 Z"
                   style="fill:#000000;fill-opacity:1;fill-rule:nonzero;stroke:#000000;stroke-width:0.79701;stroke-linecap:butt;stroke-linejoin:miter;stroke-miterlimit:10;stroke-dasharray:none;stroke-opacity:1"
                   id="path118" />
              </g>
            </g>
          </g>
          <g
             id="g120">
            <path
               d="M -20.82843,0 H 12.72292"
               style="fill:none;stroke:#000000;stroke-width:0.79701;stroke-linecap:butt;stroke-linejoin:miter;stroke-miterlimit:10;stroke-dasharray:none;stroke-opacity:1"
               id="path122" />
            <g
               id="g124"
               transform="translate(12.72292)">
              <g
                 id="g126">
                <path
                   d="M 5.68147,0 C 4.98376,0.12027 1.91684,0.8018 0,1.54347 V -1.54347 C 1.91684,-0.8018 4.98376,-0.12027 5.68147,0 Z"
                   style="fill:#000000;fill-opacity:1;fill-rule:nonzero;stroke:#000000;stroke-width:0.79701;stroke-linecap:butt;stroke-linejoin:miter;stroke-miterlimit:10;stroke-dasharray:none;stroke-opacity:1"
                   id="path128" />
              </g>
            </g>
          </g>
        </g>
      </g>
    </g>
  </g>
</svg>
