<?xml version="1.0" encoding="UTF-8" standalone="no"?>
<!-- Created with Inkscape (http://www.inkscape.org/) -->

<svg
   version="1.1"
   id="svg2"
   width="215.17467"
   height="57.712002"
   viewBox="0 0 215.17467 57.712002"
   xmlns="http://www.w3.org/2000/svg"
   xmlns:svg="http://www.w3.org/2000/svg">
  <defs
     id="defs6" />
  <g
     id="g8"
     transform="matrix(1.3333333,0,0,-1.3333333,0,57.712)">
    <g
       id="g10"
       transform="translate(71.106,-16.48)">
      <g
         id="g12">
        <g
           id="g14">
          <g
             id="g16">
            <g
               id="g18">
              <path
                 d="m -32.32553,45.35506 c 0,0.93377 -0.75696,1.69073 -1.69075,1.69073 -0.93378,0 -1.69074,-0.75696 -1.69074,-1.69073 0,-0.9338 0.75696,-1.69076 1.69074,-1.69076 0.93379,0 1.69075,0.75696 1.69075,1.69076 z"
                 style="fill:#000000;fill-opacity:1;fill-rule:nonzero;stroke:none"
                 id="path20" />
            </g>
            <g
               id="g22"
               transform="matrix(0.8,0,0,0.8,-34.015,45.355)">
              <g
                 id="g24" />
              <g
                 id="g26"
                 transform="translate(34.015,-45.355)" />
            </g>
          </g>
          <g
             id="g28">
            <g
               id="g30"
               transform="matrix(0.8,0,0,0.8,-68.45,42.634)">
              <g
                 id="g32">
                <g
                   id="g34"
                   transform="translate(-2.656,-26.154)">
                  <text
                     xml:space="preserve"
                     transform="matrix(1,0,0,-1,2.656,26.154)"
                     style="font-variant:normal;font-weight:normal;font-size:9.9626px;font-family:CMMI10;-inkscape-font-specification:CMMI10;writing-mode:lr-tb;fill:#000000;fill-opacity:1;fill-rule:nonzero;stroke:none"
                     id="text38"><tspan
                       x="0 7.7917495 15.2637 23.055449 29.732384"
                       y="0"
                       id="tspan36">FAFSA</tspan></text>
                  <g
                     id="g40"
                     transform="translate(2.656,26.154)" />
                </g>
              </g>
              <g
                 id="g42"
                 transform="translate(68.45,-42.634)" />
            </g>
          </g>
          <g
             id="g44">
            <g
               id="g46">
              <path
                 d="m -20.98677,22.67752 c 0,0.93378 -0.75696,1.69074 -1.69075,1.69074 -0.93378,0 -1.69074,-0.75696 -1.69074,-1.69074 0,-0.93379 0.75696,-1.69075 1.69074,-1.69075 0.93379,0 1.69075,0.75696 1.69075,1.69075 z"
                 style="fill:#000000;fill-opacity:1;fill-rule:nonzero;stroke:none"
                 id="path48" />
            </g>
            <g
               id="g50"
               transform="matrix(0.8,0,0,0.8,-22.677,22.678)">
              <g
                 id="g52" />
              <g
                 id="g54"
                 transform="translate(22.677,-22.678)" />
            </g>
          </g>
          <g
             id="g56">
            <g
               id="g58"
               transform="matrix(0.8,0,0,0.8,-54.054,20.686)">
              <g
                 id="g60">
                <g
                   id="g62"
                   transform="translate(-17.052,-4.206)">
                  <text
                     xml:space="preserve"
                     transform="matrix(1,0,0,-1,17.052,4.206)"
                     style="font-variant:normal;font-weight:normal;font-size:9.9626px;font-family:CMMI10;-inkscape-font-specification:CMMI10;writing-mode:lr-tb;fill:#000000;fill-opacity:1;fill-rule:nonzero;stroke:none"
                     id="text66"><tspan
                       x="0 7.8375773 12.66645 15.828579 19.000671 23.639257 28.750071"
                       y="0"
                       id="tspan64">College</tspan></text>
                  <g
                     id="g68"
                     transform="translate(17.052,4.206)" />
                </g>
              </g>
              <g
                 id="g70"
                 transform="translate(54.054,-20.686)" />
            </g>
          </g>
          <g
             id="g72">
            <g
               id="g74">
              <path
                 d="m 24.36826,22.67752 c 0,0.93378 -0.75696,1.69074 -1.69074,1.69074 -0.93379,0 -1.69075,-0.75696 -1.69075,-1.69074 0,-0.93379 0.75696,-1.69075 1.69075,-1.69075 0.93378,0 1.69074,0.75696 1.69074,1.69075 z"
                 style="fill:#000000;fill-opacity:1;fill-rule:nonzero;stroke:none"
                 id="path76" />
            </g>
            <g
               id="g78"
               transform="matrix(0.8,0,0,0.8,22.678,22.677)">
              <g
                 id="g80" />
              <g
                 id="g82"
                 transform="translate(-22.678,-22.677)" />
            </g>
          </g>
          <g
             id="g84">
            <g
               id="g86"
               transform="matrix(0.8,0,0,0.8,27.345,20.73)">
              <g
                 id="g88">
                <g
                   id="g90"
                   transform="translate(-98.451,-4.25)">
                  <text
                     xml:space="preserve"
                     transform="matrix(1,0,0,-1,98.451,4.25)"
                     style="font-variant:normal;font-weight:normal;font-size:9.9626px;font-family:CMMI10;-inkscape-font-specification:CMMI10;writing-mode:lr-tb;fill:#000000;fill-opacity:1;fill-rule:nonzero;stroke:none"
                     id="text94"><tspan
                       x="0 7.7917495 13.495337 17.092833 22.796421 27.570499 32.209087 40.131344 45.397575 50.171654 56.151207 59.583321 65.562874 70.673691"
                       y="0"
                       id="tspan92">FutureEarnings</tspan></text>
                  <g
                     id="g96"
                     transform="translate(98.451,4.25)" />
                </g>
              </g>
              <g
                 id="g98"
                 transform="translate(-27.345,-20.73)" />
            </g>
          </g>
          <g
             id="g100">
            <g
               id="g102">
              <path
                 d="m 1.69073,45.35506 c 0,0.93377 -0.75695,1.69073 -1.69073,1.69073 -0.93378,0 -1.69073,-0.75696 -1.69073,-1.69073 0,-0.9338 0.75695,-1.69076 1.69073,-1.69076 0.93378,0 1.69073,0.75696 1.69073,1.69076 z"
                 style="fill:#ff0000;fill-opacity:1;fill-rule:nonzero;stroke:none"
                 id="path104" />
            </g>
            <g
               id="g106"
               transform="matrix(0.8,0,0,0.8,0,45.355)">
              <g
                 id="g108" />
              <g
                 id="g110"
                 transform="translate(0,-45.355)" />
            </g>
          </g>
          <g
             id="g112">
            <g
               id="g114" />
            <g
               id="g116"
               transform="matrix(0.8,0,0,0.8,-21.976,51.573)">
              <g
                 id="g118">
                <g
                   id="g120"
                   transform="translate(-49.13,-35.093)">
                  <text
                     xml:space="preserve"
                     transform="matrix(1,0,0,-1,49.13,35.093)"
                     style="font-variant:normal;font-weight:normal;font-size:9.9626px;font-family:CMMI10;-inkscape-font-specification:CMMI10;writing-mode:lr-tb;fill:#ff0000;fill-opacity:1;fill-rule:nonzero;stroke:none"
                     id="text124"><tspan
                       x="0 7.7917495 13.05798 21.805143 25.237259 28.399387 33.642704 40.329601 48.261822"
                       y="0"
                       id="tspan122">FamilySES</tspan></text>
                  <g
                     id="g126"
                     transform="translate(49.13,35.093)" />
                </g>
              </g>
              <g
                 id="g128"
                 transform="translate(21.976,-51.573)" />
            </g>
          </g>
          <g
             id="g130">
            <path
               d="M -1.30835,44.04922 -15.6391,29.71852"
               style="fill:none;stroke:#000000;stroke-width:0.79701;stroke-linecap:butt;stroke-linejoin:miter;stroke-miterlimit:10;stroke-dasharray:none;stroke-opacity:1"
               id="path132" />
            <g
               id="g134"
               transform="matrix(-0.70709,-0.7071,0.7071,-0.70709,-15.63908,29.71854)">
              <g
                 id="g136">
                <path
                   d="M 5.68147,0 C 4.98376,0.12027 1.91684,0.8018 0,1.54347 V -1.54347 C 1.91684,-0.8018 4.98376,-0.12027 5.68147,0 Z"
                   style="fill:#000000;fill-opacity:1;fill-rule:nonzero;stroke:#000000;stroke-width:0.79701;stroke-linecap:butt;stroke-linejoin:miter;stroke-miterlimit:10;stroke-dasharray:none;stroke-opacity:1"
                   id="path138" />
              </g>
            </g>
          </g>
          <g
             id="g140">
            <path
               d="M -1.85017,45.35754 H -24.06232"
               style="fill:none;stroke:#000000;stroke-width:0.79701;stroke-linecap:butt;stroke-linejoin:miter;stroke-miterlimit:10;stroke-dasharray:none;stroke-opacity:1"
               id="path142" />
            <g
               id="g144"
               transform="rotate(180,-12.03116,22.67877)">
              <g
                 id="g146">
                <path
                   d="M 5.68147,0 C 4.98376,0.12027 1.91684,0.8018 0,1.54347 V -1.54347 C 1.91684,-0.8018 4.98376,-0.12027 5.68147,0 Z"
                   style="fill:#000000;fill-opacity:1;fill-rule:nonzero;stroke:#000000;stroke-width:0.79701;stroke-linecap:butt;stroke-linejoin:miter;stroke-miterlimit:10;stroke-dasharray:none;stroke-opacity:1"
                   id="path148" />
              </g>
            </g>
          </g>
          <g
             id="g150">
            <path
               d="M 1.30835,44.04922 15.6391,29.71852"
               style="fill:none;stroke:#000000;stroke-width:0.79701;stroke-linecap:butt;stroke-linejoin:miter;stroke-miterlimit:10;stroke-dasharray:none;stroke-opacity:1"
               id="path152" />
            <g
               id="g154"
               transform="matrix(0.70709,-0.7071,0.7071,0.70709,15.63908,29.71854)">
              <g
                 id="g156">
                <path
                   d="M 5.68147,0 C 4.98376,0.12027 1.91684,0.8018 0,1.54347 V -1.54347 C 1.91684,-0.8018 4.98376,-0.12027 5.68147,0 Z"
                   style="fill:#000000;fill-opacity:1;fill-rule:nonzero;stroke:#000000;stroke-width:0.79701;stroke-linecap:butt;stroke-linejoin:miter;stroke-miterlimit:10;stroke-dasharray:none;stroke-opacity:1"
                   id="path158" />
              </g>
            </g>
          </g>
          <g
             id="g160">
            <path
               d="M -20.82849,22.67871 H 12.72296"
               style="fill:none;stroke:#000000;stroke-width:0.79701;stroke-linecap:butt;stroke-linejoin:miter;stroke-miterlimit:10;stroke-dasharray:none;stroke-opacity:1"
               id="path162" />
            <g
               id="g164"
               transform="translate(12.72296,22.67871)">
              <g
                 id="g166">
                <path
                   d="M 5.68147,0 C 4.98376,0.12027 1.91684,0.8018 0,1.54347 V -1.54347 C 1.91684,-0.8018 4.98376,-0.12027 5.68147,0 Z"
                   style="fill:#000000;fill-opacity:1;fill-rule:nonzero;stroke:#000000;stroke-width:0.79701;stroke-linecap:butt;stroke-linejoin:miter;stroke-miterlimit:10;stroke-dasharray:none;stroke-opacity:1"
                   id="path168" />
              </g>
            </g>
          </g>
        </g>
      </g>
    </g>
  </g>
</svg>
