<?xml version="1.0" encoding="UTF-8" standalone="no"?>
<!-- Created with Inkscape (http://www.inkscape.org/) -->

<svg
   version="1.1"
   id="svg2"
   width="230.45734"
   height="87.950668"
   viewBox="0 0 230.45734 87.950668"
   xmlns="http://www.w3.org/2000/svg"
   xmlns:svg="http://www.w3.org/2000/svg">
  <defs
     id="defs6" />
  <g
     id="g8"
     transform="matrix(1.3333333,0,0,-1.3333333,0,87.950667)">
    <g
       id="g10"
       transform="translate(82.568,51.556)">
      <g
         id="g12">
        <g
           id="g14">
          <g
             id="g16">
            <g
               id="g18">
              <path
                 d="m -20.98677,-45.35506 c 0,0.9338 -0.75696,1.69076 -1.69075,1.69076 -0.93378,0 -1.69074,-0.75696 -1.69074,-1.69076 0,-0.93377 0.75696,-1.69073 1.69074,-1.69073 0.93379,0 1.69075,0.75696 1.69075,1.69073 z"
                 style="fill:#000000;fill-opacity:1;fill-rule:nonzero;stroke:none"
                 id="path20" />
            </g>
            <g
               id="g22"
               transform="matrix(0.8,0,0,0.8,-22.677,-45.355)">
              <g
                 id="g24" />
              <g
                 id="g26"
                 transform="translate(22.677,45.355)" />
            </g>
          </g>
          <g
             id="g28">
            <g
               id="g30"
               transform="matrix(0.8,0,0,0.8,-79.912,-47.35)">
              <g
                 id="g32">
                <g
                   id="g34"
                   transform="translate(-2.656,-4.206)">
                  <text
                     xml:space="preserve"
                     transform="matrix(1,0,0,-1,2.656,4.206)"
                     style="font-variant:normal;font-weight:normal;font-size:9.9626px;font-family:CMMI10;-inkscape-font-specification:CMMI10;writing-mode:lr-tb;fill:#000000;fill-opacity:1;fill-rule:nonzero;stroke:none"
                     id="text38"><tspan
                       x="0 7.8375773 12.66645 15.828579 19.000671 23.639257 28.750071 33.388657 41.915646 46.554234 51.665047 56.429161 61.067749"
                       y="0"
                       id="tspan36">CollegeDegree</tspan></text>
                  <g
                     id="g40"
                     transform="translate(2.656,4.206)" />
                </g>
              </g>
              <g
                 id="g42"
                 transform="translate(79.912,47.35)" />
            </g>
          </g>
          <g
             id="g44">
            <g
               id="g46">
              <path
                 d="m -20.98677,-22.67752 c 0,0.93379 -0.75696,1.69075 -1.69075,1.69075 -0.93378,0 -1.69074,-0.75696 -1.69074,-1.69075 0,-0.93378 0.75696,-1.69074 1.69074,-1.69074 0.93379,0 1.69075,0.75696 1.69075,1.69074 z"
                 style="fill:#ff0000;fill-opacity:1;fill-rule:nonzero;stroke:none"
                 id="path48" />
            </g>
            <g
               id="g50"
               transform="matrix(0.8,0,0,0.8,-22.677,-22.678)">
              <g
                 id="g52" />
              <g
                 id="g54"
                 transform="translate(22.677,22.678)" />
            </g>
          </g>
          <g
             id="g56">
            <g
               id="g58" />
            <g
               id="g60"
               transform="matrix(0.8,0,0,0.8,-54.054,-24.671)">
              <g
                 id="g62">
                <g
                   id="g64"
                   transform="translate(-28.514,-26.885)">
                  <text
                     xml:space="preserve"
                     transform="matrix(1,0,0,-1,28.514,26.885)"
                     style="font-variant:normal;font-weight:normal;font-size:9.9626px;font-family:CMMI10;-inkscape-font-specification:CMMI10;writing-mode:lr-tb;fill:#ff0000;fill-opacity:1;fill-rule:nonzero;stroke:none"
                     id="text68"><tspan
                       x="0 7.8375773 12.66645 15.828579 19.000671 23.639257 28.750071"
                       y="0"
                       id="tspan66">College</tspan></text>
                  <g
                     id="g70"
                     transform="translate(28.514,26.885)" />
                </g>
              </g>
              <g
                 id="g72"
                 transform="translate(54.054,24.671)" />
            </g>
          </g>
          <g
             id="g74">
            <g
               id="g76">
              <path
                 d="m 24.36826,-22.67752 c 0,0.93379 -0.75696,1.69075 -1.69074,1.69075 -0.93379,0 -1.69075,-0.75696 -1.69075,-1.69075 0,-0.93378 0.75696,-1.69074 1.69075,-1.69074 0.93378,0 1.69074,0.75696 1.69074,1.69074 z"
                 style="fill:#000000;fill-opacity:1;fill-rule:nonzero;stroke:none"
                 id="path78" />
            </g>
            <g
               id="g80"
               transform="matrix(0.8,0,0,0.8,22.677,-22.678)">
              <g
                 id="g82" />
              <g
                 id="g84"
                 transform="translate(-22.677,22.678)" />
            </g>
          </g>
          <g
             id="g86">
            <g
               id="g88"
               transform="matrix(0.8,0,0,0.8,27.345,-24.627)">
              <g
                 id="g90">
                <g
                   id="g92"
                   transform="translate(-109.913,-26.929)">
                  <text
                     xml:space="preserve"
                     transform="matrix(1,0,0,-1,109.913,26.929)"
                     style="font-variant:normal;font-weight:normal;font-size:9.9626px;font-family:CMMI10;-inkscape-font-specification:CMMI10;writing-mode:lr-tb;fill:#000000;fill-opacity:1;fill-rule:nonzero;stroke:none"
                     id="text96"><tspan
                       x="0 7.7917495 13.495337 17.092833 22.796421 27.560537 32.209087 40.131344 45.397575 50.171654 56.151207 59.583321 65.562874 70.673691"
                       y="0"
                       id="tspan94">FutureEarnings</tspan></text>
                  <g
                     id="g98"
                     transform="translate(109.913,26.929)" />
                </g>
              </g>
              <g
                 id="g100"
                 transform="translate(-27.345,24.627)" />
            </g>
          </g>
          <g
             id="g102">
            <g
               id="g104">
              <path
                 d="M 1.69073,0 C 1.69073,0.93378 0.93378,1.69073 0,1.69073 -0.93378,1.69073 -1.69073,0.93378 -1.69073,0 c 0,-0.93378 0.75695,-1.69073 1.69073,-1.69073 0.93378,0 1.69073,0.75695 1.69073,1.69073 z"
                 style="fill:#000000;fill-opacity:1;fill-rule:nonzero;stroke:none"
                 id="path106" />
            </g>
            <g
               id="g108"
               transform="scale(0.8)">
              <g
                 id="g110" />
            </g>
          </g>
          <g
             id="g112">
            <g
               id="g114"
               transform="matrix(0.8,0,0,0.8,-21.977,6.215)">
              <g
                 id="g116">
                <g
                   id="g118"
                   transform="translate(-60.591,-57.771)">
                  <text
                     xml:space="preserve"
                     transform="matrix(1,0,0,-1,60.591,57.771)"
                     style="font-variant:normal;font-weight:normal;font-size:9.9626px;font-family:CMMI10;-inkscape-font-specification:CMMI10;writing-mode:lr-tb;fill:#000000;fill-opacity:1;fill-rule:nonzero;stroke:none"
                     id="text122"><tspan
                       x="0 7.7917495 13.05798 21.805143 25.237259 28.409349 33.642704 40.329601 48.261822"
                       y="0"
                       id="tspan120">FamilySES</tspan></text>
                  <g
                     id="g124"
                     transform="translate(60.591,57.771)" />
                </g>
              </g>
              <g
                 id="g126"
                 transform="translate(21.977,-6.215)" />
            </g>
          </g>
          <g
             id="g128">
            <path
               d="M 1.30829,-1.30829 15.63892,-15.63892"
               style="fill:none;stroke:#000000;stroke-width:0.79701;stroke-linecap:butt;stroke-linejoin:miter;stroke-miterlimit:10;stroke-dasharray:none;stroke-opacity:1"
               id="path130" />
            <g
               id="g132"
               transform="matrix(0.7071,-0.7071,0.7071,0.7071,15.6389,-15.6389)">
              <g
                 id="g134">
                <path
                   d="M 5.68147,0 C 4.98376,0.12027 1.91684,0.8018 0,1.54347 V -1.54347 C 1.91684,-0.8018 4.98376,-0.12027 5.68147,0 Z"
                   style="fill:#000000;fill-opacity:1;fill-rule:nonzero;stroke:#000000;stroke-width:0.79701;stroke-linecap:butt;stroke-linejoin:miter;stroke-miterlimit:10;stroke-dasharray:none;stroke-opacity:1"
                   id="path136" />
              </g>
            </g>
          </g>
          <g
             id="g138">
            <path
               d="M -1.30829,-1.30829 -15.63892,-15.63892"
               style="fill:none;stroke:#000000;stroke-width:0.79701;stroke-linecap:butt;stroke-linejoin:miter;stroke-miterlimit:10;stroke-dasharray:none;stroke-opacity:1"
               id="path140" />
            <g
               id="g142"
               transform="matrix(-0.7071,-0.7071,0.7071,-0.7071,-15.6389,-15.6389)">
              <g
                 id="g144">
                <path
                   d="M 5.68147,0 C 4.98376,0.12027 1.91684,0.8018 0,1.54347 V -1.54347 C 1.91684,-0.8018 4.98376,-0.12027 5.68147,0 Z"
                   style="fill:#000000;fill-opacity:1;fill-rule:nonzero;stroke:#000000;stroke-width:0.79701;stroke-linecap:butt;stroke-linejoin:miter;stroke-miterlimit:10;stroke-dasharray:none;stroke-opacity:1"
                   id="path146" />
              </g>
            </g>
          </g>
          <g
             id="g148">
            <path
               d="M -22.67876,-24.5289 V -35.40169"
               style="fill:none;stroke:#000000;stroke-width:0.79701;stroke-linecap:butt;stroke-linejoin:miter;stroke-miterlimit:10;stroke-dasharray:none;stroke-opacity:1"
               id="path150" />
            <g
               id="g152"
               transform="rotate(-90,-29.040225,-6.361465)">
              <g
                 id="g154">
                <path
                   d="M 5.68147,0 C 4.98376,0.12027 1.91684,0.8018 0,1.54347 V -1.54347 C 1.91684,-0.8018 4.98376,-0.12027 5.68147,0 Z"
                   style="fill:#000000;fill-opacity:1;fill-rule:nonzero;stroke:#000000;stroke-width:0.79701;stroke-linecap:butt;stroke-linejoin:miter;stroke-miterlimit:10;stroke-dasharray:none;stroke-opacity:1"
                   id="path156" />
              </g>
            </g>
          </g>
          <g
             id="g158">
            <path
               d="M -20.82849,-22.67871 H 12.72296"
               style="fill:none;stroke:#000000;stroke-width:0.79701;stroke-linecap:butt;stroke-linejoin:miter;stroke-miterlimit:10;stroke-dasharray:none;stroke-opacity:1"
               id="path160" />
            <g
               id="g162"
               transform="translate(12.72296,-22.67871)">
              <g
                 id="g164">
                <path
                   d="M 5.68147,0 C 4.98376,0.12027 1.91684,0.8018 0,1.54347 V -1.54347 C 1.91684,-0.8018 4.98376,-0.12027 5.68147,0 Z"
                   style="fill:#000000;fill-opacity:1;fill-rule:nonzero;stroke:#000000;stroke-width:0.79701;stroke-linecap:butt;stroke-linejoin:miter;stroke-miterlimit:10;stroke-dasharray:none;stroke-opacity:1"
                   id="path166" />
              </g>
            </g>
          </g>
        </g>
      </g>
    </g>
  </g>
</svg>
